# xmcd
#
# Track frame offsets:
#	150
#	27155
#	54122
#	74985
#	104905
#	139282
#	165947
#	190412
#	207275
#	227532
#
# Disc length: 3358 seconds
#
# Revision: 0
# Processed by: cddbd v1.5.2PL0 Copyright (c) Steve Scherf et al.
# Submitted via: dBpowerAMP V4.0
#
DISCID=900d1c0a
DTITLE=Khanh Ha - Lang Van CD42
DYEAR=1992
DGENRE=VietPOP
TTITLE0=Toi Voi Troi Bo Vo
TTITLE1=Co Hong
TTITLE2=Bay Di Canh Chim Bien
TTITLE3=Giot Mua Thu
TTITLE4=La Thu
TTITLE5=Tieng Sao Thien Thai
TTITLE6=Nua Hon Thuong Dau
TTITLE7=Noi Yeu Bat Tan
TTITLE8=Hay Khoc Di Em
TTITLE9=Tu Giong Hat Em
EXTD=
EXTT0=
EXTT1=
EXTT2=
EXTT3=
EXTT4=
EXTT5=
EXTT6=
EXTT7=
EXTT8=
EXTT9=
PLAYORDER=
